<svg width="14" height="8" viewBox="0 0 14 8" fill="none" xmlns="http://www.w3.org/2000/svg">
<path d="M1.08122 7.33084C1.03831 7.37689 0.98656 7.41383 0.92906 7.43945C0.871561 7.46507 0.809489 7.47885 0.746549 7.47996C0.68361 7.48107 0.621092 7.46949 0.562725 7.44591C0.504357 7.42234 0.451336 7.38725 0.406824 7.34274C0.362313 7.29822 0.327222 7.2452 0.303646 7.18683C0.280071 7.12847 0.268493 7.06595 0.269603 7.00301C0.270714 6.94007 0.28449 6.878 0.31011 6.8205C0.335729 6.763 0.372668 6.71125 0.418723 6.66834L6.66872 0.418337C6.75661 0.330556 6.87575 0.28125 6.99997 0.28125C7.12419 0.28125 7.24333 0.330556 7.33122 0.418337L13.5812 6.66834C13.664 6.7572 13.7091 6.87473 13.707 6.99616C13.7048 7.1176 13.6556 7.23347 13.5697 7.31935C13.4839 7.40523 13.368 7.45443 13.2466 7.45657C13.1251 7.45871 13.0076 7.41364 12.9187 7.33084L6.99997 1.41287L1.08122 7.33084Z" fill="white"/>
</svg>
