<svg width="24" height="25" viewBox="0 0 24 25" fill="none" xmlns="http://www.w3.org/2000/svg">
<rect width="24" height="24" transform="translate(0 0.5)" fill="#ffffff"/>
<path d="M8.20725 19.9731C8.14327 20.0274 8.09196 20.0929 8.05637 20.1656C8.02078 20.2384 8.00164 20.3169 8.0001 20.3965C7.99856 20.4761 8.01464 20.5552 8.04739 20.6291C8.08014 20.7029 8.12889 20.77 8.19072 20.8263C8.25255 20.8826 8.3262 20.927 8.40728 20.9568C8.48836 20.9867 8.57521 21.0013 8.66264 20.9999C8.75007 20.9985 8.83629 20.9811 8.91617 20.9487C8.99604 20.9163 9.06793 20.8695 9.12754 20.8113L17.8096 12.9043C17.9315 12.7931 18 12.6424 18 12.4852C18 12.3281 17.9315 12.1773 17.8096 12.0661L9.12754 4.15916C9.0041 4.05441 8.84084 3.99738 8.67215 4.00009C8.50346 4.0028 8.3425 4.06504 8.2232 4.17369C8.1039 4.28234 8.03556 4.42893 8.03259 4.58256C8.02961 4.7362 8.09223 4.88488 8.20725 4.9973L16.428 12.4852L8.20725 19.9731Z" fill="#191919"/>
</svg>
