<svg width="22" height="18" viewBox="0 0 22 18" fill="none" xmlns="http://www.w3.org/2000/svg">
<path d="M15.6875 0.187988C13.7188 0.187988 12.0069 1.0758 11 2.56361C9.99312 1.0758 8.28125 0.187988 6.3125 0.187988C4.82119 0.189725 3.39146 0.782915 2.33694 1.83743C1.28243 2.89195 0.689237 4.32168 0.6875 5.81299C0.6875 8.55049 2.39375 11.3996 5.75937 14.2796C7.30161 15.5937 8.96751 16.7554 10.7338 17.7483C10.8156 17.7923 10.9071 17.8153 11 17.8153C11.0929 17.8153 11.1844 17.7923 11.2662 17.7483C13.0325 16.7554 14.6984 15.5937 16.2406 14.2796C19.6062 11.3996 21.3125 8.55049 21.3125 5.81299C21.3108 4.32168 20.7176 2.89195 19.6631 1.83743C18.6085 0.782915 17.1788 0.189725 15.6875 0.187988ZM11 16.6046C9.46156 15.7167 1.8125 11.0367 1.8125 5.81299C1.81374 4.61989 2.28825 3.47602 3.13189 2.63238C3.97553 1.78873 5.11941 1.31423 6.3125 1.31299C8.21375 1.31299 9.81031 2.3283 10.4797 3.9633C10.5221 4.06647 10.5942 4.15471 10.6868 4.21681C10.7795 4.27891 10.8885 4.31207 11 4.31207C11.1115 4.31207 11.2205 4.27891 11.3132 4.21681C11.4058 4.15471 11.4779 4.06647 11.5203 3.9633C12.1897 2.3283 13.7863 1.31299 15.6875 1.31299C16.8806 1.31423 18.0245 1.78873 18.8681 2.63238C19.7118 3.47602 20.1863 4.61989 20.1875 5.81299C20.1875 11.0367 12.5384 15.7167 11 16.6046Z" fill="#191919"/>
</svg>
