<svg width="18" height="14" viewBox="0 0 18 14" fill="none" xmlns="http://www.w3.org/2000/svg">
<path d="M4.6875 1C4.6875 0.850816 4.74676 0.707742 4.85225 0.602252C4.95774 0.496763 5.10082 0.4375 5.25 0.4375H17.25C17.3992 0.4375 17.5423 0.496763 17.6477 0.602252C17.7532 0.707742 17.8125 0.850816 17.8125 1C17.8125 1.14918 17.7532 1.29226 17.6477 1.39775C17.5423 1.50324 17.3992 1.5625 17.25 1.5625H5.25C5.10082 1.5625 4.95774 1.50324 4.85225 1.39775C4.74676 1.29226 4.6875 1.14918 4.6875 1ZM17.25 6.4375H5.25C5.10082 6.4375 4.95774 6.49676 4.85225 6.60225C4.74676 6.70774 4.6875 6.85082 4.6875 7C4.6875 7.14918 4.74676 7.29226 4.85225 7.39775C4.95774 7.50324 5.10082 7.5625 5.25 7.5625H17.25C17.3992 7.5625 17.5423 7.50324 17.6477 7.39775C17.7532 7.29226 17.8125 7.14918 17.8125 7C17.8125 6.85082 17.7532 6.70774 17.6477 6.60225C17.5423 6.49676 17.3992 6.4375 17.25 6.4375ZM17.25 12.4375H5.25C5.10082 12.4375 4.95774 12.4968 4.85225 12.6023C4.74676 12.7077 4.6875 12.8508 4.6875 13C4.6875 13.1492 4.74676 13.2923 4.85225 13.3977C4.95774 13.5032 5.10082 13.5625 5.25 13.5625H17.25C17.3992 13.5625 17.5423 13.5032 17.6477 13.3977C17.7532 13.2923 17.8125 13.1492 17.8125 13C17.8125 12.8508 17.7532 12.7077 17.6477 12.6023C17.5423 12.4968 17.3992 12.4375 17.25 12.4375ZM1.125 0.0625C0.939581 0.0625 0.758325 0.117483 0.604153 0.220497C0.449982 0.323511 0.329821 0.469928 0.258863 0.641234C0.187906 0.81254 0.169341 1.00104 0.205514 1.1829C0.241688 1.36475 0.330976 1.5318 0.462088 1.66291C0.5932 1.79402 0.760246 1.88331 0.942103 1.91949C1.12396 1.95566 1.31246 1.93709 1.48377 1.86614C1.65507 1.79518 1.80149 1.67502 1.9045 1.52085C2.00752 1.36668 2.0625 1.18542 2.0625 1C2.0625 0.75136 1.96373 0.512903 1.78791 0.337087C1.6121 0.161272 1.37364 0.0625 1.125 0.0625ZM1.125 12.0625C0.939581 12.0625 0.758325 12.1175 0.604153 12.2205C0.449982 12.3235 0.329821 12.4699 0.258863 12.6412C0.187906 12.8125 0.169341 13.001 0.205514 13.1829C0.241688 13.3648 0.330976 13.5318 0.462088 13.6629C0.5932 13.794 0.760246 13.8833 0.942103 13.9195C1.12396 13.9557 1.31246 13.9371 1.48377 13.8661C1.65507 13.7952 1.80149 13.675 1.9045 13.5208C2.00752 13.3667 2.0625 13.1854 2.0625 13C2.0625 12.7514 1.96373 12.5129 1.78791 12.3371C1.6121 12.1613 1.37364 12.0625 1.125 12.0625ZM1.125 6.0625C0.939581 6.0625 0.758325 6.11748 0.604153 6.2205C0.449982 6.32351 0.329821 6.46993 0.258863 6.64123C0.187906 6.81254 0.169341 7.00104 0.205514 7.1829C0.241688 7.36475 0.330976 7.5318 0.462088 7.66291C0.5932 7.79402 0.760246 7.88331 0.942103 7.91949C1.12396 7.95566 1.31246 7.93709 1.48377 7.86614C1.65507 7.79518 1.80149 7.67502 1.9045 7.52085C2.00752 7.36668 2.0625 7.18542 2.0625 7C2.0625 6.75136 1.96373 6.5129 1.78791 6.33709C1.6121 6.16127 1.37364 6.0625 1.125 6.0625Z" fill="#323232"/>
</svg>
