<svg width="32" height="32" viewBox="0 0 32 32" fill="none" xmlns="http://www.w3.org/2000/svg">
<path d="M26.4 15.5H5.6C5.44087 15.5 5.28826 15.6054 5.17574 15.7929C5.06321 15.9804 5 16.2348 5 16.5C5 16.7652 5.06321 17.0196 5.17574 17.2071C5.28826 17.3946 5.44087 17.5 5.6 17.5H26.4C26.5591 17.5 26.7117 17.3946 26.8243 17.2071C26.9368 17.0196 27 16.7652 27 16.5C27 16.2348 26.9368 15.9804 26.8243 15.7929C26.7117 15.6054 26.5591 15.5 26.4 15.5Z" fill="white"/>
<path d="M29.2364 22H2.76364C2.56111 22 2.36687 22.1054 2.22366 22.2929C2.08045 22.4804 2 22.7348 2 23C2 23.2652 2.08045 23.5196 2.22366 23.7071C2.36687 23.8946 2.56111 24 2.76364 24H29.2364C29.4389 24 29.6331 23.8946 29.7763 23.7071C29.9195 23.5196 30 23.2652 30 23C30 22.7348 29.9195 22.4804 29.7763 22.2929C29.6331 22.1054 29.4389 22 29.2364 22Z" fill="white"/>
<path d="M29.2364 9H2.76364C2.56111 9 2.36687 9.10536 2.22366 9.29289C2.08045 9.48043 2 9.73478 2 10C2 10.2652 2.08045 10.5196 2.22366 10.7071C2.36687 10.8946 2.56111 11 2.76364 11H29.2364C29.4389 11 29.6331 10.8946 29.7763 10.7071C29.9195 10.5196 30 10.2652 30 10C30 9.73478 29.9195 9.48043 29.7763 9.29289C29.6331 9.10536 29.4389 9 29.2364 9Z" fill="white"/>
</svg>
