<svg width="32" height="32" viewBox="0 0 32 32" fill="none" xmlns="http://www.w3.org/2000/svg">
<path d="M29.2364 16H2.76364C2.56111 16 2.36687 16.079 2.22366 16.2197C2.08045 16.3603 2 16.5511 2 16.75C2 16.9489 2.08045 17.1397 2.22366 17.2803C2.36687 17.421 2.56111 17.5 2.76364 17.5H29.2364C29.4389 17.5 29.6331 17.421 29.7763 17.2803C29.9195 17.1397 30 16.9489 30 16.75C30 16.5511 29.9195 16.3603 29.7763 16.2197C29.6331 16.079 29.4389 16 29.2364 16Z" fill="white"/>
<path d="M29.2364 22.5H2.76364C2.56111 22.5 2.36687 22.579 2.22366 22.7197C2.08045 22.8603 2 23.0511 2 23.25C2 23.4489 2.08045 23.6397 2.22366 23.7803C2.36687 23.921 2.56111 24 2.76364 24H29.2364C29.4389 24 29.6331 23.921 29.7763 23.7803C29.9195 23.6397 30 23.4489 30 23.25C30 23.0511 29.9195 22.8603 29.7763 22.7197C29.6331 22.579 29.4389 22.5 29.2364 22.5Z" fill="white"/>
<path d="M29.2364 9.5H2.76364C2.56111 9.5 2.36687 9.57902 2.22366 9.71967C2.08045 9.86032 2 10.0511 2 10.25C2 10.4489 2.08045 10.6397 2.22366 10.7803C2.36687 10.921 2.56111 11 2.76364 11H29.2364C29.4389 11 29.6331 10.921 29.7763 10.7803C29.9195 10.6397 30 10.4489 30 10.25C30 10.0511 29.9195 9.86032 29.7763 9.71967C29.6331 9.57902 29.4389 9.5 29.2364 9.5Z" fill="white"/>
</svg>
