<svg width="16" height="16" viewBox="0 0 16 16" fill="none" xmlns="http://www.w3.org/2000/svg">
<path d="M12.9349 10.5711C12.6123 10.8259 12.2603 11.0594 11.879 11.2716C11.4977 11.4733 11.0969 11.6431 10.6764 11.7811C10.256 11.9191 9.82096 12.0252 9.37122 12.0995C8.92148 12.1632 8.46196 12.195 7.99267 12.195C7.0443 12.195 6.14971 12.0517 5.30889 11.7652C4.47785 11.4892 3.74947 11.1045 3.12374 10.6109C2.49801 10.1174 2.00428 9.54163 1.64253 8.88358C1.28078 8.21492 1.09991 7.50912 1.09991 6.76617C1.09991 6.04444 1.26856 5.34925 1.60587 4.6806C1.94317 4.01194 2.42958 3.41227 3.06508 2.88159C3.39749 2.60564 3.75435 2.36153 4.13566 2.14925C4.51696 1.94759 4.91537 1.77247 5.33089 1.62388C5.74641 1.47529 6.17904 1.36385 6.62878 1.28955C7.07852 1.21526 7.53315 1.17811 7.99267 1.17811H8.00733C8.46685 1.17811 8.92148 1.21526 9.37122 1.28955C9.82096 1.36385 10.2536 1.47264 10.6691 1.61592C11.0846 1.7592 11.483 1.93698 11.8643 2.14925C12.2456 2.36153 12.6025 2.60564 12.9349 2.88159C13.5704 3.41227 14.0568 4.01194 14.3941 4.6806C14.7314 5.34925 14.9001 6.04444 14.9001 6.76617C14.9001 7.47728 14.7314 8.16186 14.3941 8.8199C14.0568 9.47794 13.5704 10.0617 12.9349 10.5711ZM12.9349 13.1821C12.6123 13.4368 12.2603 13.665 11.879 13.8667C11.4977 14.0789 11.0969 14.2541 10.6764 14.392C10.256 14.53 9.82096 14.6308 9.37122 14.6945C8.92148 14.7688 8.46196 14.806 7.99267 14.806C7.14207 14.806 6.33547 14.6892 5.57287 14.4557C4.80049 14.2222 4.11366 13.9038 3.51237 13.5005C2.91109 13.0972 2.41002 12.6196 2.00917 12.0677C1.59853 11.5158 1.32478 10.9161 1.1879 10.2687C1.35411 10.4915 1.53987 10.7091 1.74519 10.9214C1.9505 11.1337 2.17049 11.3353 2.40513 11.5264C2.77666 11.8235 3.1824 12.0889 3.62236 12.3224C4.05255 12.5559 4.50229 12.7522 4.97159 12.9114C5.44088 13.0706 5.92973 13.1874 6.43813 13.2617C6.94653 13.3466 7.46471 13.3891 7.99267 13.3891C8.52062 13.3891 9.0388 13.3466 9.5472 13.2617C10.0556 13.1874 10.5469 13.0706 11.0211 12.9114C11.4953 12.7522 11.9474 12.5559 12.3776 12.3224C12.8078 12.0889 13.2136 11.8235 13.5949 11.5264C13.8295 11.3353 14.0471 11.1337 14.2475 10.9214C14.4479 10.7091 14.6361 10.4915 14.8121 10.2687C14.6948 10.8099 14.4772 11.33 14.1595 11.8289C13.8417 12.3277 13.4335 12.7788 12.9349 13.1821ZM15.9853 6.36816C15.956 5.94361 15.8827 5.53499 15.7654 5.14229C15.648 4.73897 15.4892 4.34892 15.2887 3.97214C15.0883 3.59536 14.8463 3.23715 14.5628 2.89751C14.2793 2.55788 13.9566 2.23947 13.5949 1.94229C13.2136 1.62388 12.8078 1.34262 12.3776 1.09851C11.9474 0.865007 11.4953 0.666002 11.0211 0.501492C10.5469 0.336981 10.0556 0.212272 9.5472 0.127362C9.0388 0.0424538 8.52551 0 8.00733 0H7.99267C6.89765 0 5.86129 0.175123 4.88359 0.525373C3.91567 0.886235 3.06997 1.37181 2.34647 1.98209C1.62298 2.59237 1.05102 3.31144 0.630614 4.1393C0.210205 4.95655 0 5.83217 0 6.76617V9.37711C0 9.82289 0.0537733 10.2633 0.16132 10.6985C0.268866 11.1443 0.422854 11.5662 0.623281 11.9642C0.823709 12.3622 1.07547 12.7469 1.37855 13.1184C1.67186 13.4793 2.01405 13.8136 2.40513 14.1214C2.77666 14.4292 3.1824 14.6998 3.62236 14.9333C4.05255 15.1668 4.50229 15.3605 4.97159 15.5144C5.44088 15.6683 5.92973 15.7877 6.43813 15.8726C6.94653 15.9575 7.46471 16 7.99267 16C8.52062 16 9.0388 15.9575 9.5472 15.8726C10.0556 15.7877 10.5469 15.6683 11.0211 15.5144C11.4953 15.3605 11.9474 15.1668 12.3776 14.9333C12.8078 14.6998 13.2136 14.4292 13.5949 14.1214C13.9762 13.8136 14.3184 13.4793 14.6214 13.1184C14.9148 12.7469 15.1641 12.3622 15.3694 11.9642C15.5747 11.5662 15.7311 11.1443 15.8387 10.6985C15.9462 10.2633 16 9.82289 16 9.37711V6.49552C16 6.47429 15.9976 6.45307 15.9927 6.43184C15.9878 6.41061 15.9853 6.38939 15.9853 6.36816ZM9.50321 8.99502C9.39566 9.02687 9.28078 9.04809 9.15857 9.05871C9.03636 9.06932 8.91659 9.07463 8.79927 9.07463C8.30064 9.07463 7.84601 8.96849 7.43538 8.75622C7.02475 8.54395 6.69233 8.26269 6.43813 7.91244H8.69661C8.85304 7.91244 8.98258 7.85672 9.08524 7.74527C9.1879 7.63383 9.23923 7.4932 9.23923 7.32338C9.23923 7.16418 9.1879 7.0262 9.08524 6.90945C8.98258 6.7927 8.85304 6.73433 8.69661 6.73433H5.99817C5.98839 6.70249 5.9835 6.67065 5.9835 6.63881C5.9835 6.60697 5.9835 6.57512 5.9835 6.54328C5.9835 6.4796 5.98595 6.41857 5.99083 6.3602C5.99572 6.30182 6.00306 6.2408 6.01283 6.17711H8.69661C8.85304 6.17711 8.98258 6.11874 9.08524 6.00199C9.1879 5.88524 9.23923 5.74726 9.23923 5.58806C9.23923 5.41824 9.1879 5.27761 9.08524 5.16617C8.98258 5.05473 8.85304 4.999 8.69661 4.999H6.52612C6.78032 4.66998 7.10541 4.4073 7.50137 4.21095C7.89734 4.01459 8.32997 3.91642 8.79927 3.91642C8.91659 3.91642 9.03391 3.92438 9.15124 3.9403C9.26856 3.95622 9.38588 3.97479 9.50321 3.99602C9.64986 4.03847 9.78674 4.01459 9.91384 3.92438C10.0409 3.83416 10.124 3.70945 10.1632 3.55025C10.1925 3.39104 10.1656 3.24245 10.0825 3.10448C9.99939 2.9665 9.88451 2.87628 9.73785 2.83383C9.5912 2.80199 9.43721 2.77546 9.27589 2.75423C9.11457 2.733 8.9557 2.72239 8.79927 2.72239C8.00733 2.72239 7.29117 2.93466 6.65078 3.3592C6.01039 3.78375 5.53376 4.33035 5.2209 4.999H4.86893C4.7125 4.999 4.58051 5.05473 4.47296 5.16617C4.36541 5.27761 4.31164 5.41824 4.31164 5.58806C4.31164 5.74726 4.36541 5.88524 4.47296 6.00199C4.58051 6.11874 4.7125 6.17711 4.86893 6.17711H4.91292C4.90315 6.2408 4.89581 6.30182 4.89093 6.3602C4.88604 6.41857 4.88359 6.4796 4.88359 6.54328C4.88359 6.57512 4.88604 6.60697 4.89093 6.63881C4.89581 6.67065 4.89826 6.70249 4.89826 6.73433H4.86893C4.7125 6.73433 4.58051 6.7927 4.47296 6.90945C4.36541 7.0262 4.31164 7.16418 4.31164 7.32338C4.31164 7.4932 4.36541 7.63383 4.47296 7.74527C4.58051 7.85672 4.7125 7.91244 4.86893 7.91244H5.16224C5.26001 8.15655 5.38466 8.3874 5.53621 8.60497C5.68775 8.82255 5.86618 9.02687 6.07149 9.21791C6.43324 9.55755 6.84876 9.81758 7.31806 9.99801C7.78735 10.1784 8.28109 10.2687 8.79927 10.2687C8.9557 10.2687 9.11213 10.2607 9.26856 10.2448C9.42499 10.2289 9.58142 10.1997 9.73785 10.1572C9.88451 10.1254 9.99939 10.0405 10.0825 9.90249C10.1656 9.76451 10.1925 9.61592 10.1632 9.45672C10.124 9.29751 10.0409 9.1728 9.91384 9.08259C9.78674 8.99237 9.64986 8.96318 9.50321 8.99502Z" fill="#191919"/>
</svg>
