<svg width="20" height="20" viewBox="0 0 20 20" fill="none" xmlns="http://www.w3.org/2000/svg">
    <path d="M10 2.03125C8.42393 2.03125 6.88326 2.49861 5.5728 3.37423C4.26235 4.24984 3.24097 5.49439 2.63784 6.95049C2.0347 8.40659 1.87689 10.0088 2.18437 11.5546C2.49185 13.1004 3.2508 14.5203 4.36525 15.6348C5.4797 16.7492 6.89959 17.5082 8.44538 17.8156C9.99116 18.1231 11.5934 17.9653 13.0495 17.3622C14.5056 16.759 15.7502 15.7377 16.6258 14.4272C17.5014 13.1167 17.9688 11.5761 17.9688 10C17.9663 7.88732 17.1259 5.86188 15.632 4.36798C14.1381 2.87409 12.1127 2.03373 10 2.03125ZM10 17.0312C8.60935 17.0312 7.24993 16.6189 6.09365 15.8463C4.93737 15.0737 4.03615 13.9755 3.50398 12.6907C2.9718 11.406 2.83255 9.9922 3.10386 8.62827C3.37516 7.26434 4.04482 6.01149 5.02816 5.02816C6.0115 4.04482 7.26435 3.37516 8.62827 3.10385C9.9922 2.83255 11.406 2.97179 12.6907 3.50397C13.9755 4.03615 15.0737 4.93736 15.8463 6.09365C16.6189 7.24993 17.0313 8.60935 17.0313 10C17.0292 11.8642 16.2877 13.6514 14.9696 14.9696C13.6514 16.2877 11.8642 17.0292 10 17.0312ZM12.7602 9.60938L9.01016 7.10938C8.93952 7.06225 8.85741 7.03519 8.77259 7.0311C8.68777 7.02701 8.60343 7.04603 8.52859 7.08614C8.45374 7.12625 8.3912 7.18594 8.34763 7.25884C8.30407 7.33173 8.28113 7.41508 8.28125 7.5V12.5C8.28113 12.5849 8.30407 12.6683 8.34763 12.7412C8.3912 12.8141 8.45374 12.8737 8.52859 12.9139C8.60343 12.954 8.68777 12.973 8.77259 12.9689C8.85741 12.9648 8.93952 12.9378 9.01016 12.8906L12.7602 10.3906C12.8246 10.3479 12.8775 10.2898 12.9141 10.2217C12.9507 10.1535 12.9698 10.0774 12.9698 10C12.9698 9.92265 12.9507 9.8465 12.9141 9.77834C12.8775 9.71018 12.8246 9.65213 12.7602 9.60938ZM9.21875 11.6242V8.37578L11.6547 10L9.21875 11.6242Z" fill="#191919"/>
</svg>
