<svg width="15" height="16" viewBox="0 0 15 16" fill="none" xmlns="http://www.w3.org/2000/svg">
<path d="M14.8817 14.7586L11.1065 10.9834C12.1831 9.74541 12.7369 8.13775 12.6512 6.49936C12.5655 4.86097 11.847 3.31984 10.6473 2.20084C9.44746 1.08184 7.86006 0.472391 6.21968 0.500961C4.5793 0.529531 3.01409 1.19389 1.85399 2.35399C0.693888 3.51409 0.0295306 5.0793 0.000960934 6.71968C-0.0276088 8.36006 0.581841 9.94746 1.70084 11.1473C2.81984 12.347 4.36097 13.0655 5.99936 13.1512C7.63775 13.2369 9.24541 12.6831 10.4834 11.6065L14.2586 15.3817C14.3422 15.4596 14.4527 15.5019 14.5669 15.4999C14.6811 15.4979 14.7901 15.4516 14.8709 15.3709C14.9516 15.2901 14.9979 15.1811 14.9999 15.0669C15.0019 14.9527 14.9596 14.8422 14.8817 14.7586ZM0.903713 6.8409C0.903713 5.76552 1.2226 4.7143 1.82004 3.82016C2.41749 2.92602 3.26666 2.22912 4.26018 1.81759C5.25369 1.40607 6.34693 1.29839 7.40164 1.50819C8.45635 1.71798 9.42516 2.23582 10.1856 2.99623C10.946 3.75663 11.4638 4.72544 11.6736 5.78015C11.8834 6.83486 11.7757 7.9281 11.3642 8.92161C10.9527 9.91513 10.2558 10.7643 9.36163 11.3617C8.46749 11.9592 7.41627 12.2781 6.3409 12.2781C4.8994 12.2763 3.51745 11.7029 2.49816 10.6836C1.47887 9.66434 0.905463 8.28239 0.903713 6.8409Z" fill="#191919"/>
</svg>
