<svg width="78" height="78" viewBox="0 0 78 78" fill="none" xmlns="http://www.w3.org/2000/svg">
<g filter="url(#filter0_d_2083_3438)">
<rect x="14" y="10.0005" width="50" height="50" rx="25" fill="white" shape-rendering="crispEdges"/>
<path d="M29.0746 31.5573H33.3274V45.2437H29.0746V31.5573ZM31.2026 24.7542C32.5626 24.7542 33.6666 25.8582 33.6666 27.2214C33.6666 28.5846 32.5626 29.6885 31.2026 29.6885C29.8394 29.6885 28.7354 28.5846 28.7354 27.2214C28.7322 25.8614 29.8362 24.7542 31.2026 24.7542Z" fill="#191919"/>
<path d="M35.9971 31.5572H40.0771V33.426H40.1347C40.7011 32.3508 42.0867 31.2148 44.1603 31.2148C48.4675 31.2148 49.2643 34.05 49.2643 37.7332V45.2436H45.0115V38.5908C45.0115 37.0004 44.9827 34.962 42.8003 34.962C40.5859 34.962 40.2467 36.69 40.2467 38.4756V45.2468H35.9971V31.5572Z" fill="#191919"/>
</g>
<defs>
<filter id="filter0_d_2083_3438" x="0" y="0.000488281" width="78" height="78" filterUnits="userSpaceOnUse" color-interpolation-filters="sRGB">
<feFlood flood-opacity="0" result="BackgroundImageFix"/>
<feColorMatrix in="SourceAlpha" type="matrix" values="0 0 0 0 0 0 0 0 0 0 0 0 0 0 0 0 0 0 127 0" result="hardAlpha"/>
<feOffset dy="4"/>
<feGaussianBlur stdDeviation="7"/>
<feComposite in2="hardAlpha" operator="out"/>
<feColorMatrix type="matrix" values="0 0 0 0 0 0 0 0 0 0 0 0 0 0 0 0 0 0 0.1 0"/>
<feBlend mode="normal" in2="BackgroundImageFix" result="effect1_dropShadow_2083_3438"/>
<feBlend mode="normal" in="SourceGraphic" in2="effect1_dropShadow_2083_3438" result="shape"/>
</filter>
</defs>
</svg>
