<svg width="78" height="78" viewBox="0 0 78 78" fill="none" xmlns="http://www.w3.org/2000/svg">
<g filter="url(#filter0_d_2083_3448)">
<rect x="14" y="10.0005" width="50" height="50" rx="25" fill="white" shape-rendering="crispEdges"/>
<path d="M33.2247 42.7001C32.9029 44.0822 33.0292 46.029 33.1692 47.295L34.2625 47.6771C34.9148 46.6145 35.8898 44.8725 36.2512 43.4827C36.4457 42.7341 37.248 39.6792 37.248 39.6792C37.7697 40.6741 39.2939 41.5164 40.9152 41.5164C45.741 41.5164 49.2178 37.0787 49.2178 31.5644C49.2178 26.2787 44.9044 22.3237 39.354 22.3237C32.4492 22.3237 28.7822 26.9587 28.7822 32.0059C28.7822 34.3526 30.0315 37.274 32.0299 38.2043C32.333 38.3454 32.4952 38.2832 32.565 37.9903C32.618 37.7679 32.8879 36.6812 33.0094 36.1758C33.0483 36.0142 33.029 35.8753 32.8984 35.7169C32.2374 34.9153 31.7077 33.4408 31.7077 32.0655C31.7077 28.5367 34.3799 25.1221 38.9325 25.1221C42.8629 25.1221 45.6157 27.8006 45.6157 31.6314C45.6157 35.9597 43.4299 38.9582 40.5859 38.9582C39.0153 38.9582 37.8397 37.6595 38.2166 36.0669C38.6678 34.1649 39.5418 32.1126 39.5418 30.7397C39.5418 29.5109 38.8823 28.4859 37.5174 28.4859C35.9117 28.4859 34.6222 30.1469 34.6222 32.3716C34.6222 33.7887 35.1009 34.7471 35.1009 34.7471C35.1009 34.7471 33.5154 41.4515 33.2247 42.7001Z" fill="#191919"/>
</g>
<defs>
<filter id="filter0_d_2083_3448" x="0" y="0.000488281" width="78" height="78" filterUnits="userSpaceOnUse" color-interpolation-filters="sRGB">
<feFlood flood-opacity="0" result="BackgroundImageFix"/>
<feColorMatrix in="SourceAlpha" type="matrix" values="0 0 0 0 0 0 0 0 0 0 0 0 0 0 0 0 0 0 127 0" result="hardAlpha"/>
<feOffset dy="4"/>
<feGaussianBlur stdDeviation="7"/>
<feComposite in2="hardAlpha" operator="out"/>
<feColorMatrix type="matrix" values="0 0 0 0 0 0 0 0 0 0 0 0 0 0 0 0 0 0 0.1 0"/>
<feBlend mode="normal" in2="BackgroundImageFix" result="effect1_dropShadow_2083_3448"/>
<feBlend mode="normal" in="SourceGraphic" in2="effect1_dropShadow_2083_3448" result="shape"/>
</filter>
</defs>
</svg>
