<svg width="78" height="78" viewBox="0 0 78 78" fill="none" xmlns="http://www.w3.org/2000/svg">
<g filter="url(#filter0_d_2083_3433)">
<rect x="14" y="10.0005" width="50" height="50" rx="25" fill="white" shape-rendering="crispEdges"/>
<path d="M39 22.2505C36.4783 22.2505 34.0132 22.9983 31.9165 24.3993C29.8198 25.8002 28.1856 27.7915 27.2205 30.1213C26.2555 32.451 26.003 35.0146 26.495 37.4879C26.987 39.9611 28.2013 42.233 29.9844 44.0161C31.7675 45.7992 34.0393 47.0135 36.5126 47.5055C38.9859 47.9975 41.5495 47.745 43.8792 46.78C46.209 45.8149 48.2003 44.1807 49.6012 42.084C51.0022 39.9873 51.75 37.5222 51.75 35.0005C51.746 31.6202 50.4015 28.3795 48.0112 25.9893C45.621 23.599 42.3803 22.2545 39 22.2505ZM39 46.2505C36.775 46.2505 34.5999 45.5907 32.7498 44.3545C30.8998 43.1184 29.4578 41.3613 28.6064 39.3057C27.7549 37.25 27.5321 34.988 27.9662 32.8057C28.4003 30.6234 29.4717 28.6189 31.0451 27.0455C32.6184 25.4722 34.623 24.4007 36.8052 23.9667C38.9875 23.5326 41.2495 23.7554 43.3052 24.6068C45.3609 25.4583 47.1179 26.9003 48.354 28.7503C49.5902 30.6004 50.25 32.7754 50.25 35.0005C50.2467 37.9832 49.0604 40.8427 46.9513 42.9518C44.8422 45.0609 41.9827 46.2472 39 46.2505ZM43.4163 34.3755L37.4163 30.3755C37.3032 30.3001 37.1719 30.2568 37.0361 30.2502C36.9004 30.2437 36.7655 30.2741 36.6457 30.3383C36.526 30.4025 36.4259 30.498 36.3562 30.6146C36.2865 30.7313 36.2498 30.8646 36.25 31.0005V39.0005C36.2498 39.1364 36.2865 39.2697 36.3562 39.3864C36.4259 39.503 36.526 39.5985 36.6457 39.6627C36.7655 39.7268 36.9004 39.7573 37.0361 39.7507C37.1719 39.7442 37.3032 39.7009 37.4163 39.6255L43.4163 35.6255C43.5194 35.5571 43.604 35.4642 43.6625 35.3551C43.721 35.2461 43.7517 35.1243 43.7517 35.0005C43.7517 34.8767 43.721 34.7549 43.6625 34.6458C43.604 34.5368 43.5194 34.4439 43.4163 34.3755ZM37.75 37.5992V32.4017L41.6475 35.0005L37.75 37.5992Z" fill="#191919"/>
</g>
<defs>
<filter id="filter0_d_2083_3433" x="0" y="0.000488281" width="78" height="78" filterUnits="userSpaceOnUse" color-interpolation-filters="sRGB">
<feFlood flood-opacity="0" result="BackgroundImageFix"/>
<feColorMatrix in="SourceAlpha" type="matrix" values="0 0 0 0 0 0 0 0 0 0 0 0 0 0 0 0 0 0 127 0" result="hardAlpha"/>
<feOffset dy="4"/>
<feGaussianBlur stdDeviation="7"/>
<feComposite in2="hardAlpha" operator="out"/>
<feColorMatrix type="matrix" values="0 0 0 0 0 0 0 0 0 0 0 0 0 0 0 0 0 0 0.1 0"/>
<feBlend mode="normal" in2="BackgroundImageFix" result="effect1_dropShadow_2083_3433"/>
<feBlend mode="normal" in="SourceGraphic" in2="effect1_dropShadow_2083_3433" result="shape"/>
</filter>
</defs>
</svg>
