<svg width="78" height="78" viewBox="0 0 78 78" fill="none" xmlns="http://www.w3.org/2000/svg">
<g filter="url(#filter0_d_2083_3430)">
<rect x="14" y="10.0005" width="50" height="50" rx="25" fill="white" shape-rendering="crispEdges"/>
<path d="M49.8337 28.2505H47.75V24.0005C47.75 23.8016 47.671 23.6108 47.5303 23.4702C47.3897 23.3295 47.1989 23.2505 47 23.2505H31C30.8011 23.2505 30.6103 23.3295 30.4697 23.4702C30.329 23.6108 30.25 23.8016 30.25 24.0005V28.2505H28.1663C26.5588 28.2505 25.25 29.4842 25.25 31.0005V41.0005C25.25 41.1994 25.329 41.3902 25.4697 41.5308C25.6103 41.6715 25.8011 41.7505 26 41.7505H30.25V46.0005C30.25 46.1994 30.329 46.3902 30.4697 46.5308C30.6103 46.6715 30.8011 46.7505 31 46.7505H47C47.1989 46.7505 47.3897 46.6715 47.5303 46.5308C47.671 46.3902 47.75 46.1994 47.75 46.0005V41.7505H52C52.1989 41.7505 52.3897 41.6715 52.5303 41.5308C52.671 41.3902 52.75 41.1994 52.75 41.0005V31.0005C52.75 29.4842 51.4412 28.2505 49.8337 28.2505ZM31.75 24.7505H46.25V28.2505H31.75V24.7505ZM46.25 45.2505H31.75V38.7505H46.25V45.2505ZM51.25 40.2505H47.75V38.0005C47.75 37.8016 47.671 37.6108 47.5303 37.4702C47.3897 37.3295 47.1989 37.2505 47 37.2505H31C30.8011 37.2505 30.6103 37.3295 30.4697 37.4702C30.329 37.6108 30.25 37.8016 30.25 38.0005V40.2505H26.75V31.0005C26.75 30.3117 27.385 29.7505 28.1663 29.7505H49.8337C50.615 29.7505 51.25 30.3117 51.25 31.0005V40.2505ZM47.75 33.5005C47.75 33.7477 47.6767 33.9894 47.5393 34.195C47.402 34.4005 47.2068 34.5607 46.9784 34.6553C46.7499 34.7499 46.4986 34.7747 46.2561 34.7265C46.0137 34.6782 45.7909 34.5592 45.6161 34.3844C45.4413 34.2096 45.3223 33.9868 45.274 33.7444C45.2258 33.5019 45.2505 33.2505 45.3451 33.0221C45.4398 32.7937 45.6 32.5985 45.8055 32.4612C46.0111 32.3238 46.2528 32.2505 46.5 32.2505C46.8315 32.2505 47.1495 32.3822 47.3839 32.6166C47.6183 32.851 47.75 33.169 47.75 33.5005Z" fill="#191919"/>
</g>
<defs>
<filter id="filter0_d_2083_3430" x="0" y="0.000488281" width="78" height="78" filterUnits="userSpaceOnUse" color-interpolation-filters="sRGB">
<feFlood flood-opacity="0" result="BackgroundImageFix"/>
<feColorMatrix in="SourceAlpha" type="matrix" values="0 0 0 0 0 0 0 0 0 0 0 0 0 0 0 0 0 0 127 0" result="hardAlpha"/>
<feOffset dy="4"/>
<feGaussianBlur stdDeviation="7"/>
<feComposite in2="hardAlpha" operator="out"/>
<feColorMatrix type="matrix" values="0 0 0 0 0 0 0 0 0 0 0 0 0 0 0 0 0 0 0.1 0"/>
<feBlend mode="normal" in2="BackgroundImageFix" result="effect1_dropShadow_2083_3430"/>
<feBlend mode="normal" in="SourceGraphic" in2="effect1_dropShadow_2083_3430" result="shape"/>
</filter>
</defs>
</svg>
